<?xml version="1.0" encoding="UTF-8" standalone="no"?>
<svg width="19px" height="18px" viewBox="0 0 19 18" version="1.1" xmlns="http://www.w3.org/2000/svg">
    <title>close</title>
    <g stroke="none" stroke-width="1" fill="none" fill-rule="evenodd">
        <g id="close">
            <path d="M9.9,0 C4.92,0 0.9,4.02 0.9,9 C0.9,13.98 4.92,18 9.9,18 C14.88,18 18.9,13.98 18.9,9 C18.9,4.02 14.88,0 9.9,0 L9.9,0 Z" fill="#000000" ></path>
            <path d="M14.26,12.04 C14.32,12.1 14.36,12.18 14.36,12.26 C14.36,12.34 14.32,12.42 14.26,12.48 L13.4,13.36 C13.34,13.42 13.26,13.46 13.18,13.46 C13.1,13.46 13.02,13.42 12.96,13.36 L9.9,10.32 L6.88,13.36 C6.82,13.42 6.74,13.46 6.66,13.46 C6.58,13.46 6.5,13.42 6.44,13.36 L5.58,12.48 C5.52,12.42 5.48,12.34 5.48,12.26 C5.48,12.18 5.52,12.1 5.58,12.04 L8.6,8.98 L5.56,5.98 C5.44,5.86 5.44,5.66 5.56,5.52 L6.42,4.64 C6.48,4.58 6.56,4.54 6.64,4.54 C6.72,4.54 6.8,4.58 6.86,4.64 L9.9,7.64 L12.94,4.64 C13,4.58 13.08,4.54 13.16,4.54 C13.24,4.54 13.32,4.58 13.38,4.64 L14.24,5.52 C14.36,5.64 14.36,5.84 14.24,5.98 L11.22,8.98 L14.26,12.04 L14.26,12.04 Z" fill="#FFFFFF"></path>
        </g>
    </g>
</svg>