<?xml version="1.0" encoding="UTF-8" standalone="no"?>
<svg width="20px" height="14px" viewBox="0 0 20 14" version="1.1" xmlns="http://www.w3.org/2000/svg">
    <title>eye</title>
    <g stroke="none" stroke-width="1" fill="none" fill-rule="evenodd">
        <g transform="translate(0.000000, 1.000000)" fill="#000000">
            <path d="M0,5.99616723 C0.07812,5.34298996 0.50778,4.61143143 1.28898,3.80149164 C2.33058,2.73028094 3.50238,1.86808695 4.80438,1.2149097 C6.52302,0.4049699 8.25468,0 9.99936,0 C11.82216,0.0261270903 13.55382,0.43109699 15.19434,1.2149097 C16.57446,1.92034113 17.74626,2.78253512 18.70974,3.80149164 C19.56906,4.76819398 19.99872,5.49975251 19.99872,5.99616723 C19.9206,6.64934448 19.49094,7.38090301 18.70974,8.19084281 C17.66814,9.26205351 16.49634,10.1242475 15.19434,10.7774247 C13.4757,11.5873646 11.74404,11.9923345 9.99936,11.9923345 C8.17656,11.9662074 6.4449,11.5612375 4.80438,10.7774247 C3.42426,10.0719933 2.25246,9.20979934 1.28898,8.19084281 C0.42966,7.22414047 8.52651283e-16,6.49258194 8.52651283e-16,5.99616723 L0,5.99616723 L0,5.99616723 Z M5.2731,5.99616723 C5.2731,7.25026755 5.73531333,8.31494314 6.65974,9.190194 C7.58416667,10.0654449 8.69738,10.5030702 9.99938,10.5030702 C11.30138,10.5030702 12.4145933,10.0654449 13.33902,9.190194 C14.2634467,8.31494314 14.72566,7.25026755 14.72566,5.99616723 C14.72566,4.74206689 14.2634467,3.67739131 13.33902,2.80214047 C12.4145933,1.92688963 11.30138,1.48926422 9.99938,1.48926422 C8.69738,1.48926422 7.58416667,1.92688963 6.65974,2.80214047 C5.73531333,3.67739131 5.2731,4.74206689 5.2731,5.99616723 L5.2731,5.99616723 L5.2731,5.99616723 Z M6.99174,5.97656187 C6.99174,5.17967893 7.28469333,4.50037458 7.8706,3.93864883 C8.45650667,3.37692308 9.1661,3.0960602 9.99938,3.0960602 C10.83266,3.0960602 11.5422533,3.37692308 12.12816,3.93864883 C12.7140667,4.50037458 13.00702,5.17967893 13.00702,5.97656187 C13.00702,6.77344482 12.7140667,7.45927759 12.12816,8.0340602 C11.5422533,8.60884277 10.83266,8.8962408 9.99938,8.89625417 C9.1661,8.89626754 8.45650667,8.6088696 7.8706,8.0340602 C7.28469333,7.45925084 6.99174,6.77341806 6.99174,5.97656187 L6.99174,5.97656187 L6.99174,5.97656187 Z"></path>
        </g>
    </g>
</svg>